<svg t="1694446487094" class="icon" viewBox="0 0 1024 1024" version="1.1" xmlns="http://www.w3.org/2000/svg"
     p-id="19284" width="200" height="200">
    <path d="M607.9 707.9l-47.5 45.9c-14.6 14.1-33.9 21.9-54.2 21.9s-39.6-7.8-54.2-21.9L311.4 618c-8.6-8.3-22-8.3-30.6 0l-217 209.4c7.8 74.4 70.8 132.5 147.2 132.5h598.5c29.7 0 57.3-8.8 80.5-23.9L655.2 707.8c-13.2-12.7-34-12.7-47.3 0.1zM666.1 276.3c-49.3 0-89.5 40.1-89.5 89.5s40.1 89.5 89.5 89.5c49.3 0 89.5-40.1 89.5-89.5s-40.2-89.5-89.5-89.5z"
          fill="#fff" p-id="19285"></path>
    <path d="M809.6 65.4H211c-81.6 0-148 66.4-148 148v537l179-172.7c14.6-14.1 33.9-21.9 54.2-21.9s39.6 7.8 54.2 21.9L491 713.5c8.6 8.3 22 8.3 30.6 0l47.5-45.9c16.9-16.3 39.1-25.3 62.6-25.3s45.7 9 62.6 25.3l236.3 229.6c17.1-24.1 27.1-53.6 27.1-85.3V213.4c-0.1-81.6-66.5-148-148.1-148zM666.1 511.3c-80.2 0-145.5-65.3-145.5-145.5s65.3-145.5 145.5-145.5 145.5 65.3 145.5 145.5-65.3 145.5-145.5 145.5z"
          fill="#fff" p-id="19286"></path>
</svg>
