<svg t="1694447364875" class="icon" viewBox="0 0 1024 1024" version="1.1" xmlns="http://www.w3.org/2000/svg"
     p-id="29035" width="200" height="200">
  <path
          fill="#fff"
    d="M679.264 146.56c110.976 43.136 178.016 152.736 165.536 266.016 52.448 41.28 83.2 103.136 83.2 169.376 0 120.224-100.992 218.08-225.12 218.08h-49.632l-73.376 73.376a95.424 95.424 0 0 1-67.872 28.16 95.488 95.488 0 0 1-67.904-28.16l-73.344-73.376h-49.6C196.992 800.032 96 702.176 96 581.952c0-65.824 30.464-127.52 82.368-168.736a187.168 187.168 0 0 1 26.368-111.328c38.272-63.68 108.96-99.424 183.616-94.912 74.752-75.328 189.408-99.68 290.912-60.416z m-254.208 114.912l-11.52 13.216a182.144 182.144 0 0 0-37.568-4.064c-47.552 0-92.384 24.32-116.384 64.224a123.36 123.36 0 0 0-15.584 87.04l4.128 21.056-17.984 11.776C186.208 483.456 160 531.008 160 581.952c0 84.96 72.288 154.08 161.152 154.08h76.096l81.696 81.696v-210.304l-64.416 64.8-51.328-44.16 99.968-100.384 47.456-47.84 147.424 148.064-47.616 47.68-67.456-67.744-0.032 212 83.808-83.808h76.128c88.832 0 161.12-69.12 161.12-154.08 0-51.36-26.592-99.168-71.136-127.936l-18.24-11.744 4.192-21.312c17.728-89.92-33.92-180.256-122.752-214.72-81.824-31.776-174.624-9.568-231.008 55.232z"
     p-id="29036">

  </path>
</svg>
