<svg t="1694446099193" class="icon" viewBox="0 0 1024 1024" version="1.1" xmlns="http://www.w3.org/2000/svg"
     p-id="10194" width="200" height="200">
  <path
          fill="#fff"
    d="M873.87 287.73l-84.34 31.07a16 16 0 0 1-21.53-15V288a160 160 0 0 0-160-160H288A224 224 0 0 0 64 352v320a224 224 0 0 0 224 224h320a160 160 0 0 0 160-160v-15.79a16 16 0 0 1 21.53-15l84.34 31.07c41.79 15.39 86.13-15.53 86.13-60v-328.5c0-44.52-44.34-75.44-86.13-60.05zM448 672a32 32 0 0 1-32 32H288a32 32 0 0 1-32-32 32 32 0 0 1 32-32h128a32 32 0 0 1 32 32z"
    p-id="10195"></path>
</svg>
